<svg width="494" height="115" viewBox="0 0 494 115" fill="none" xmlns="http://www.w3.org/2000/svg">
<path d="M112.872 57.224C113.928 52.136 118.152 49.448 123.24 49.448C127.944 49.448 132.264 52.52 133.128 57.224H112.872ZM149.352 65.48C149.352 48.68 139.464 38.12 122.376 38.12C106.344 38.12 95.112 48.008 95.112 64.424C95.112 81.416 107.304 90.632 123.624 90.632C129.288 90.632 134.856 89.288 139.368 86.504C143.88 83.72 147.336 79.496 148.68 73.736H131.88C129.96 77 127.272 78.248 123.528 78.248C116.328 78.248 112.584 74.408 112.584 67.304H149.352V65.48ZM174.826 39.752H157.354V89H174.826V63.464C174.826 57.32 176.842 52.04 183.946 52.04C192.586 52.04 191.818 60.296 191.818 65V89H209.29V58.568C209.29 46.472 204.01 38.12 190.762 38.12C183.946 38.12 179.05 40.136 175.018 46.088H174.826V39.752ZM238.295 39.752H220.823V89H238.295V39.752ZM229.559 11.048C224.183 11.048 219.767 15.464 219.767 20.84C219.767 26.216 224.183 30.632 229.559 30.632C234.935 30.632 239.351 26.216 239.351 20.84C239.351 15.464 234.935 11.048 229.559 11.048ZM275.807 38.12C259.967 38.12 246.143 47.624 246.143 64.424C246.143 81.224 260.063 90.632 275.807 90.632C291.647 90.632 305.471 81.128 305.471 64.424C305.471 47.624 291.647 38.12 275.807 38.12ZM275.807 53.288C282.911 53.288 287.039 58.376 287.039 64.424C287.039 70.664 282.911 75.464 275.807 75.464C268.703 75.464 264.575 70.664 264.575 64.424C264.575 58.376 268.703 53.288 275.807 53.288ZM330.826 39.752H313.354V89H330.826V69.128C330.826 60.68 333.226 54.248 342.922 54.248C345.61 54.248 347.914 54.536 350.314 55.88V39.08H346.954C340.138 39.08 334.378 41.768 331.018 47.816H330.826V39.752ZM358.043 68.456C351.803 68.456 346.811 73.448 346.811 79.688C346.811 85.832 351.803 90.92 358.043 90.92C364.283 90.92 369.275 85.832 369.275 79.688C369.275 73.448 364.283 68.456 358.043 68.456ZM405.926 53.288C413.03 53.288 417.158 58.376 417.158 64.424C417.158 70.664 413.03 75.464 405.926 75.464C398.822 75.464 394.694 70.664 394.694 64.424C394.694 58.376 398.822 53.288 405.926 53.288ZM434.054 39.752H416.582V44.552C412.934 40.232 406.982 38.12 401.318 38.12C386.726 38.12 376.646 50.216 376.646 64.328C376.646 78.44 386.918 90.632 401.51 90.632C407.27 90.632 413.318 88.424 416.39 83.528H416.582V89H434.054V39.752ZM469.827 74.504L492.867 39.752H443.715V54.248H463.779L440.643 89H490.563V74.504H469.827Z" fill="#1A3B54"/>
<path d="M16.0887 111.757L16.6399 113L17.7926 112.268C33.4369 102.338 66.1364 81.6995 72.0969 78.3744C75.7705 76.3251 77.0379 73.8261 76.9997 71.5635C76.9815 70.483 76.6633 69.5398 76.2785 68.8285C76.0857 68.4721 75.8685 68.1597 75.6479 67.9065C75.465 67.6966 75.2262 67.4652 74.946 67.3062L51.5755 51.5359L40.6106 59.6219L41.6905 60.5705C44.4737 63.0153 51.2405 68.0595 54.4706 70.1951C55.762 71.0489 56.0087 71.6735 56.0367 71.9067C56.0552 72.0608 55.9982 72.2403 55.713 72.4011C49.7274 75.7766 40.4396 81.1912 32.3831 86.3488C28.3571 88.9262 24.6202 91.4511 21.7518 93.6322C20.3189 94.7218 19.0841 95.7397 18.1327 96.6461C17.2139 97.5214 16.4463 98.3964 16.0887 99.2024C13.8492 104.25 15.1503 109.642 16.0887 111.757Z" fill="#1A3B54"/>
<path d="M60.9118 16.2423L60.3607 15L59.2079 15.7316C43.5636 25.6613 10.8642 46.3002 4.90364 49.6253C1.23011 51.6746 -0.0373936 54.1736 0.000836055 56.4362C0.0190913 57.5167 0.337233 58.4599 0.722078 59.1712C0.914873 59.5276 1.13201 59.84 1.3527 60.0933C1.53555 60.3031 1.77436 60.5346 2.05455 60.6935L25.4251 76.4638L36.3899 68.3778L35.3101 67.4293C32.5268 64.9845 25.7601 59.9403 22.5299 57.8046C21.2386 56.9508 20.9919 56.3262 20.9638 56.093C20.9453 55.939 21.0023 55.7594 21.2876 55.5986C27.2731 52.2231 36.561 46.8084 44.6174 41.6509C48.6434 39.0735 52.3804 36.5486 55.2487 34.3675C56.6816 33.2778 57.9164 32.26 58.8678 31.3536C59.7866 30.4782 60.5543 29.6033 60.9118 28.7973C63.1514 23.7498 61.8502 18.3573 60.9118 16.2423Z" fill="#4FA6A9"/>
</svg>
